<?xml version="1.0" ?><svg height="24px" version="1.1" viewBox="0 0 24 24" width="24px" xmlns="http://www.w3.org/2000/svg" xmlns:sketch="http://www.bohemiancoding.com/sketch/ns" xmlns:xlink="http://www.w3.org/1999/xlink"><title/><desc/><defs/><g fill="none" fill-rule="evenodd" id="miu" stroke="none" stroke-width="1"><g id="Artboard-1" transform="translate(-755.000000, -335.000000)"><g id="slice" transform="translate(215.000000, 119.000000)"/><path d="M759.999512,338 L756,338 L756,356 C756,357 757.1,357 757.1,357 L777,357 C777,357 778,357 778,356 L778,338 L774,338 L774,339.247631 C774,340.21717 773.217269,341 772.249584,341 L771.750416,341 C770.782056,341 770,340.215028 770,339.247631 L770,338 L764,338 L764,339.247631 C764,340.21717 763.217269,341 762.249584,341 L761.750416,341 C760.782056,341 760,340.215028 760,339.247631 L760,338 L759.999512,338 Z M772,336 C771.447715,336 771,336.447208 771,336.999051 L771,339.000949 C771,339.55271 771.448839,340 772,340 C772.552285,340 773,339.552792 773,339.000949 L773,336.999051 C773,336.44729 772.551161,336 772,336 Z M761,336.752369 L761,339.247631 C761,339.663153 761.334755,340 761.750416,340 L762.249584,340 C762.664027,340 763,339.665842 763,339.247631 L763,336.752369 C763,336.336847 762.665245,336 762.249584,336 L761.750416,336 C761.335973,336 761,336.334158 761,336.752369 Z M758,342 L758,343 L776,343 L776,342 L758,342 Z M762,347.345021 C762.737244,347.282842 763.251416,347.178939 763.542533,347.03331 C763.83365,346.88768 764.051039,346.543247 764.194707,346 L765,346 L765,354 L764.025452,354 L764.025452,348.02244 L762,348.02244 L762,347.345021 Z M771.51417,347.245411 C771.838058,347.887155 772,348.766367 772,349.883073 C772,350.941768 771.85324,351.817354 771.559717,352.509857 C771.134613,353.503291 770.439613,354 769.474696,354 C768.604247,354 767.95648,353.593931 767.531377,352.781781 C767.177124,352.103781 767,351.193751 767,350.051666 C767,349.167002 767.106274,348.407436 767.318826,347.772944 C767.716939,346.590975 768.437242,346 769.479757,346 C770.417684,346 771.095814,346.415133 771.51417,347.245411 C771.51417,347.245411 771.095814,346.415133 771.51417,347.245411 Z M770.584307,352.350218 C770.861437,351.917028 771,351.11005 771,349.929258 C771,349.076852 770.899834,348.375549 770.699499,347.825327 C770.499164,347.275106 770.110187,347 769.532554,347 C769.001667,347 768.613524,347.261133 768.368114,347.783406 C768.122703,348.305679 768,349.075104 768,350.091703 C768,350.856772 768.078463,351.471613 768.235392,351.936245 C768.475794,352.645418 768.886475,353 769.467446,353 C769.934894,353 770.307177,352.783408 770.584307,352.350218 C770.584307,352.350218 770.307177,352.783408 770.584307,352.350218 Z" fill="#000000" id="common-calendar-day-glyph"/></g></g></svg>